<svg width="64" height="64" viewBox="0 0 64 64" fill="none" xmlns="http://www.w3.org/2000/svg">
<g clip-path="url(#clip0_36_599)">
<path d="M32 0C25.671 0 19.4841 1.87677 14.2218 5.39297C8.95939 8.90918 4.85787 13.9069 2.43587 19.7541C0.013865 25.6014 -0.619842 32.0355 0.614885 38.2429C1.84961 44.4503 4.89732 50.1521 9.3726 54.6274C13.8479 59.1027 19.5497 62.1504 25.7571 63.3851C31.9645 64.6199 38.3986 63.9861 44.2459 61.5641C50.0931 59.1421 55.0908 55.0406 58.607 49.7782C62.1232 44.5159 64 38.329 64 32C63.9907 23.5159 60.6164 15.382 54.6172 9.38282C48.618 3.38366 40.4841 0.00926428 32 0V0ZM32 61C26.2644 61 20.6575 59.2992 15.8885 56.1126C11.1195 52.9261 7.40245 48.3969 5.20751 43.0978C3.01257 37.7988 2.43827 31.9678 3.55724 26.3424C4.67621 20.7169 7.43819 15.5496 11.4939 11.4939C15.5496 7.43818 20.7169 4.6762 26.3424 3.55723C31.9678 2.43826 37.7988 3.01255 43.0978 5.20749C48.3969 7.40244 52.9261 11.1194 56.1126 15.8885C59.2992 20.6575 61 26.2643 61 32C60.9908 39.6884 57.9324 47.0593 52.4959 52.4959C47.0593 57.9324 39.6884 60.9907 32 61Z" fill="black"/>
<path d="M43.95 21.18L25.21 39.61L20.085 34.215C19.8087 33.9375 19.4348 33.7791 19.0432 33.7737C18.6516 33.7682 18.2734 33.9161 17.9894 34.1857C17.7054 34.4553 17.5381 34.8254 17.5233 35.2167C17.5085 35.608 17.6472 35.9896 17.91 36.28L24.085 42.78C24.2221 42.9238 24.3864 43.039 24.5684 43.1189C24.7503 43.1987 24.9463 43.2416 25.145 43.245H25.17C25.5628 43.2447 25.9398 43.0903 26.22 42.815L46.045 23.315C46.1855 23.1768 46.2974 23.0122 46.3744 22.8308C46.4513 22.6493 46.4917 22.4545 46.4933 22.2574C46.495 22.0603 46.4578 21.8648 46.3838 21.6821C46.3099 21.4994 46.2007 21.333 46.0625 21.1925C45.9243 21.052 45.7598 20.9401 45.5783 20.8631C45.3968 20.7862 45.202 20.7458 45.0049 20.7442C44.8078 20.7425 44.6123 20.7797 44.4296 20.8537C44.2469 20.9276 44.0805 21.0368 43.94 21.175L43.95 21.18Z" fill="black"/>
</g>
<defs>
<clipPath id="clip0_36_599">
<rect width="64" height="64" fill="white"/>
</clipPath>
</defs>
</svg>
