<svg width="20" height="20" viewBox="0 0 20 20" fill="none" xmlns="http://www.w3.org/2000/svg">
<path d="M10.754 10.0469L19.4161 1.38481C19.6114 1.18956 19.6114 0.873 19.4161 0.67775C19.2208 0.4825 18.9043 0.4825 18.709 0.67775L10.0469 9.33975L1.38486 0.677687C1.18961 0.482437 0.873047 0.482437 0.677797 0.677687C0.482484 0.872938 0.482484 1.1895 0.677797 1.38475L9.3398 10.0469L0.677734 18.7089C0.482422 18.9042 0.482422 19.2208 0.677734 19.4161C0.775359 19.5137 0.903297 19.5625 1.0313 19.5625C1.1593 19.5625 1.28723 19.5137 1.38486 19.4161L10.0469 10.754L18.709 19.4161C18.8067 19.5137 18.9345 19.5625 19.0625 19.5625C19.1905 19.5625 19.3185 19.5137 19.4161 19.4161C19.6114 19.2208 19.6114 18.9042 19.4161 18.7089L10.754 10.0469Z" fill="black"/>
</svg>
