<svg width="24" height="24" viewBox="0 0 24 24" fill="none" xmlns="http://www.w3.org/2000/svg">
<path d="M12.9425 12.0586L23.7701 1.23102C24.0141 0.986953 24.0141 0.59125 23.7701 0.347187C23.5259 0.103125 23.1303 0.103125 22.8862 0.347187L12.0586 11.1747L1.23101 0.347109C0.98695 0.103047 0.591247 0.103047 0.347185 0.347109C0.103044 0.591172 0.103044 0.986875 0.347185 1.23094L11.1747 12.0586L0.347107 22.8862C0.102966 23.1303 0.102966 23.5259 0.347107 23.7701C0.469138 23.8921 0.62906 23.9531 0.78906 23.9531C0.94906 23.9531 1.10898 23.8921 1.23101 23.7701L12.0586 12.9425L22.8862 23.7701C23.0083 23.8921 23.1681 23.9531 23.3281 23.9531C23.4881 23.9531 23.648 23.8921 23.7701 23.7701C24.0141 23.5259 24.0141 23.1303 23.7701 22.8862L12.9425 12.0586Z" fill="#999999"/>
</svg>
