<svg width="45" height="52" viewBox="0 0 45 52" fill="none" xmlns="http://www.w3.org/2000/svg">
<path d="M4.35605 1.67696L42.9811 23.977C44.5381 24.876 44.5381 27.124 42.9811 28.023L4.35605 50.323C2.79905 51.222 0.852051 50.098 0.852051 48.3V3.69996C0.852051 1.90196 2.79805 0.777964 4.35605 1.67696Z" fill="white"/>
<path d="M42.9811 23.977L4.35608 1.67697C4.12308 1.54297 3.88208 1.46697 3.64008 1.41797L40.9811 22.977C42.5381 23.876 42.5381 26.124 40.9811 27.023L2.35608 49.323C2.00708 49.524 1.64008 49.611 1.27808 49.624C1.93408 50.562 3.23908 50.967 4.35608 50.323L42.9811 28.023C44.5381 27.124 44.5381 24.876 42.9811 23.977Z" fill="white"/>
<path d="M4.35605 1.67696L42.9811 23.977C44.5381 24.876 44.5381 27.124 42.9811 28.023L4.35605 50.323C2.79905 51.222 0.852051 50.098 0.852051 48.3V3.69996C0.852051 1.90196 2.79805 0.777964 4.35605 1.67696Z" stroke="white" stroke-miterlimit="10"/>
</svg>
