<svg width="15" height="15" viewBox="0 0 15 15" fill="none" xmlns="http://www.w3.org/2000/svg">
<path d="M4.25004 8.5H8.75004C8.88854 8.5 9.00004 8.6115 9.00004 8.75C9.00004 8.8885 8.88854 9 8.75004 9H4.25004C4.11154 9 4.00004 8.8885 4.00004 8.75C4.00004 8.6115 4.11154 8.5 4.25004 8.5ZM6.50004 9.5C5.95004 9.5 5.50004 9.95 5.50004 10.5C5.50004 11.05 5.95004 11.5 6.50004 11.5C7.05004 11.5 7.50004 11.05 7.50004 10.5C7.50004 9.95 7.05004 9.5 6.50004 9.5ZM6.50004 10C6.77904 10 7.00004 10.221 7.00004 10.5C7.00004 10.779 6.77904 11 6.50004 11C6.22104 11 6.00004 10.779 6.00004 10.5C6.00004 10.221 6.22104 10 6.50004 10ZM6.50004 6C5.95004 6 5.50004 6.45 5.50004 7C5.50004 7.55 5.95004 8 6.50004 8C7.05004 8 7.50004 7.55 7.50004 7C7.50004 6.45 7.05004 6 6.50004 6ZM6.50004 6.5C6.77904 6.5 7.00004 6.721 7.00004 7C7.00004 7.279 6.77904 7.5 6.50004 7.5C6.22104 7.5 6.00004 7.279 6.00004 7C6.00004 6.721 6.22104 6.5 6.50004 6.5ZM12.5 1.5C11.95 1.5 11.5 1.95 11.5 2.5C11.5 3.05 11.95 3.5 12.5 3.5C13.05 3.5 13.5 3.05 13.5 2.5C13.5 1.95 13.05 1.5 12.5 1.5ZM12.5 2C12.779 2 13 2.221 13 2.5C13 2.779 12.779 3 12.5 3C12.221 3 12 2.779 12 2.5C12 2.221 12.221 2 12.5 2ZM0.223038 7.835C-0.0704623 8.125 -0.0684623 8.606 0.223038 8.897L6.10304 14.777C6.39304 15.068 6.87404 15.0705 7.16454 14.777L14.4275 7.425C14.551 7.3 14.6935 7.185 14.8115 6.997C14.929 6.809 14.9995 6.562 14.9995 6.225V0.75C14.9995 0.3385 14.6605 0 14.2495 0H8.74954C8.17054 0 7.83754 0.312 7.57454 0.5725L0.223038 7.835ZM0.574538 8.191L7.92504 0.928C8.19154 0.665 8.32904 0.5 8.75004 0.5H14.25C14.3925 0.5 14.5 0.607 14.5 0.75V6.226C14.5 6.4995 14.4535 6.6285 14.388 6.7325C14.323 6.8375 14.216 6.9295 14.073 7.0745L6.80804 14.4245C6.70954 14.5245 6.55804 14.5245 6.45654 14.4235L0.576538 8.5435C0.475038 8.442 0.474038 8.2895 0.574538 8.1905V8.191Z" fill="#CEBB0D"/>
</svg>
