<svg width="19" height="19" viewBox="0 0 19 19" fill="none" xmlns="http://www.w3.org/2000/svg">
<g clip-path="url(#clip0_19_1168)">
<path d="M18.9145 15.1444L18.82 14.8594C18.596 14.1937 17.8618 13.4994 17.1874 13.3164L14.6912 12.6345C14.0142 12.4504 13.0486 12.698 12.5534 13.1932L11.6499 14.0966C8.36672 13.2095 5.79216 10.6348 4.90618 7.35226L5.80964 6.4488C6.30492 5.95353 6.55251 4.98919 6.36835 4.31226L5.68768 1.81483C5.50351 1.13914 4.80791 0.404993 4.14345 0.183479L3.8585 0.0876734C3.19276 -0.133841 2.24331 0.090182 1.74808 0.585414L0.396693 1.93803C0.155269 2.17818 0.000969679 2.86507 0.000969679 2.86758C-0.0462958 7.1581 1.63607 11.2918 4.67101 14.3268C7.69851 17.3543 11.8167 19.0342 16.0948 18.9981C16.1172 18.9981 16.824 18.8463 17.0654 18.6061L18.4168 17.2547C18.912 16.7595 19.136 15.8101 18.9145 15.1444Z" fill="black"/>
</g>
<defs>
<clipPath id="clip0_19_1168">
<rect width="19" height="19" fill="white"/>
</clipPath>
</defs>
</svg>
