<svg width="37" height="38" viewBox="0 0 37 38" fill="none" xmlns="http://www.w3.org/2000/svg">
<path d="M4.5672 0.755828C4.35572 0.578255 4.04033 0.60574 3.86276 0.817217L0.969042 4.26343C0.791469 4.47491 0.818954 4.7903 1.03043 4.96787C1.24191 5.14544 1.5573 5.11796 1.73487 4.90648L4.30706 1.84318L7.37036 4.41537C7.58184 4.59294 7.89723 4.56546 8.0748 4.35398C8.25237 4.1425 8.22489 3.82712 8.01341 3.64954L4.5672 0.755828ZM5.00453 4.08739L4.74378 1.09533L3.74756 1.18215L4.00831 4.17421L5.00453 4.08739ZM36.523 36.9831C19.5976 34.7758 6.48639 21.0917 5.00453 4.08739L4.00831 4.17421C5.53092 21.6462 19.0027 35.7067 36.3937 37.9747L36.523 36.9831Z" fill="#CBCBCB"/>
</svg>
